# xmcd CD database file
#
# Track frame offsets:
#	150
#	31226
#	55020
#	71132
#	102554
#	117768
#	135684
#	155493
#	173821
#	204298
#	223136
#	253042
#	267641
#	277991
#	294301
#	321780
#
# Disc length: 4502 seconds
#
# Revision: 0
# Processed by: cddbd v1.5.2PL0 Copyright (c) Steve Scherf et al.
# Submitted via: CDex 1.70beta2
#
DISCID=f4119410
DTITLE=Lyambiko - Out Of This Mood
DYEAR=2009
DGENRE=Jazz
TTITLE0=Some Other Time
TTITLE1=If I Were A Bell
TTITLE2=Chega de Saudade
TTITLE3=Afro Blue
TTITLE4=Gone With The Wind
TTITLE5=Can't Get Out Of This Mood
TTITLE6=Our Love Is Here To Stay
TTITLE7=I Ain't Got Nothin' But The Blues
TTITLE8=Parakeet Prowl
TTITLE9=Mean To Me
TTITLE10=Work Song
TTITLE11=Do Nothin' Till You Hear From Me
TTITLE12=Miss Celie's Blues
TTITLE13=You'd Be So Nice To Come Home To
TTITLE14=Skylark
TTITLE15=Take Five
EXTD=YEAR: 2009
EXTT0=
EXTT1=
EXTT2=
EXTT3=
EXTT4=
EXTT5=
EXTT6=
EXTT7=
EXTT8=
EXTT9=
EXTT10=
EXTT11=
EXTT12=
EXTT13=
EXTT14=
EXTT15=
PLAYORDER=
